<?xml version="1.0" standalone="no"?><!DOCTYPE svg PUBLIC "-//W3C//DTD SVG 1.1//EN" "http://www.w3.org/Graphics/SVG/1.1/DTD/svg11.dtd"><svg xmlns:xlink="http://www.w3.org/1999/xlink" version="1.1" style="font-family:'lucida grande', 'lucida sans unicode', arial, helvetica, sans-serif;font-size:12px;" xmlns="http://www.w3.org/2000/svg" width="600" height="400"><desc>Created with Highcharts 4.2.7</desc><defs><clipPath id="highcharts-27"><rect x="0" y="0" width="580" height="312"></rect></clipPath></defs><g class="highcharts-series-group"><g class="highcharts-series highcharts-series-0" transform="translate(10,36) scale(1 1)"><path fill="#50B432" d="M 289.9718930978901 10.000002862311419 A 138 138 0 0 1 427.9105856573748 152.96692698153396 L 290 148 A 0 0 0 0 0 290 148 Z" stroke="#FFFFFF" stroke-width="1" stroke-linejoin="round" transform="translate(0,0)"></path><path fill="#ED561B" d="M 427.905549775934 153.10483506074294 A 138 138 0 0 1 373.383428509751 257.96001023080726 L 290 148 A 0 0 0 0 0 290 148 Z" stroke="#FFFFFF" stroke-width="1" stroke-linejoin="round" transform="translate(0,0)"></path><path fill="#DDDF00" d="M 373.2734268261361 258.04333866541924 A 138 138 0 0 1 152.39409548314646 158.42185406243 L 290 148 A 0 0 0 0 0 290 148 Z" stroke="#FFFFFF" stroke-width="1" stroke-linejoin="round" transform="translate(0,0)"></path><path fill="#24CBE5" d="M 152.38374243376754 158.28424296992085 A 138 138 0 0 1 289.80832076854614 10.000133119367717 L 290 148 A 0 0 0 0 0 290 148 Z" stroke="#FFFFFF" stroke-width="1" stroke-linejoin="round" transform="translate(0,0)"></path></g><g class="highcharts-markers highcharts-series-0" transform="translate(10,36) scale(1 1)"></g></g><text x="300" text-anchor="middle" class="highcharts-title" style="color:#000000;font-size:10px;font-family:'arial', sans-serif;fill:#000000;width:536px;" y="17"><tspan>Age Presidentielle</tspan></text><g class="highcharts-data-labels highcharts-series-0" transform="translate(10,36) scale(1 1)" opacity="1"><path fill="none" d="M 415.99448141806926 31.448142587205016 C 410.99448141806926 31.448142587205016 405.2328394457802 36.99823103543335 397.3105817338828 44.629602651747305 L 389.38832402198545 52.26097426806126" stroke="#50B432" stroke-width="1"></path><path fill="none" d="M 444.0178199739413 225.57376702348566 C 439.0178199739413 225.57376702348566 431.9217333085155 221.8797781176054 422.16461414355507 216.80054337202003 L 412.4074949785946 211.72130862643465" stroke="#ED561B" stroke-width="1"></path><path fill="none" d="M 215.90376667405727 301.1329831883611 C 220.90376667405727 301.1329831883611 224.19406349910213 293.8409363698677 228.71822163353886 283.8143719944393 L 233.2423797679756 273.7878076190109" stroke="#DDDF00" stroke-width="1"></path><path fill="none" d="M 161.84728553258918 33.73098005448553 C 166.84728553258918 33.73098005448553 172.71170050722782 39.17236195665288 180.7752710973559 46.654262072132994 L 188.83884168748398 54.13616218761311" stroke="#24CBE5" stroke-width="1"></path><g style="cursor:pointer;" transform="translate(421,21)"><text x="5" style="font-size: 10px; font-weight: bold; font-family: 'arial', sans-serif; color: rgb(0, 0, 0); fill: rgb(0, 0, 0); text-rendering: geometricprecision; text-shadow: rgb(255, 255, 255) 0px 0px 6px, rgb(255, 255, 255) 0px 0px 3px;" y="15"><tspan>G Jeune : 129</tspan></text></g><g style="cursor:pointer;" transform="translate(449,216)"><text x="5" style="font-size: 10px; font-weight: bold; font-family: 'arial', sans-serif; color: rgb(0, 0, 0); fill: rgb(0, 0, 0); text-rendering: geometricprecision; text-shadow: rgb(255, 255, 255) 0px 0px 6px, rgb(255, 255, 255) 0px 0px 3px;" y="15"><tspan>D Jeune : 71</tspan></text></g><g style="cursor:pointer;" transform="translate(138,291)"><text x="5" style="font-size: 10px; font-weight: bold; font-family: 'arial', sans-serif; color: rgb(0, 0, 0); fill: rgb(0, 0, 0); text-rendering: geometricprecision; text-shadow: rgb(255, 255, 255) 0px 0px 6px, rgb(255, 255, 255) 0px 0px 3px;" y="15"><tspan>G Vieux : 172</tspan></text></g><g style="cursor:pointer;" transform="translate(85,24)"><text x="5" style="font-size: 10px; font-weight: bold; font-family: 'arial', sans-serif; color: rgb(0, 0, 0); fill: rgb(0, 0, 0); text-rendering: geometricprecision; text-shadow: rgb(255, 255, 255) 0px 0px 6px, rgb(255, 255, 255) 0px 0px 3px;" y="15"><tspan>D Vieux : 132</tspan></text></g></g><g class="highcharts-legend" transform="translate(131,360)"><g><g><g class="highcharts-legend-item" transform="translate(8,3)"><text x="21" style="color:#333;font-size:9pt;font-weight:normal;cursor:pointer;font-family:'lucida grande','lucida sans unicode',arial,helvetica,sans-serif;text-transform:none;fill:#333;" text-anchor="start" y="15"><tspan>G Jeune</tspan></text><rect x="0" y="4" width="16" height="12" fill="#50B432"></rect></g><g class="highcharts-legend-item" transform="translate(95,3)"><text x="21" y="15" style="color:#333;font-size:9pt;font-weight:normal;cursor:pointer;font-family:'lucida grande','lucida sans unicode',arial,helvetica,sans-serif;text-transform:none;fill:#333;" text-anchor="start"><tspan>D Jeune</tspan></text><rect x="0" y="4" width="16" height="12" fill="#ED561B"></rect></g><g class="highcharts-legend-item" transform="translate(182,3)"><text x="21" y="15" style="color:#333;font-size:9pt;font-weight:normal;cursor:pointer;font-family:'lucida grande','lucida sans unicode',arial,helvetica,sans-serif;text-transform:none;fill:#333;" text-anchor="start"><tspan>G Vieux</tspan></text><rect x="0" y="4" width="16" height="12" fill="#DDDF00"></rect></g><g class="highcharts-legend-item" transform="translate(266,3)"><text x="21" y="15" style="color:#333;font-size:9pt;font-weight:normal;cursor:pointer;font-family:'lucida grande','lucida sans unicode',arial,helvetica,sans-serif;text-transform:none;fill:#333;" text-anchor="start"><tspan>D Vieux</tspan></text><rect x="0" y="4" width="16" height="12" fill="#24CBE5"></rect></g></g></g></g><g class="highcharts-tooltip" display="none" style="cursor:default;padding:0;pointer-events:none;white-space:nowrap;" transform="translate(0,0)"><path fill="none" d="M 3.5 0.5 L 13.5 0.5 C 16.5 0.5 16.5 0.5 16.5 3.5 L 16.5 13.5 C 16.5 16.5 16.5 16.5 13.5 16.5 L 3.5 16.5 C 0.5 16.5 0.5 16.5 0.5 13.5 L 0.5 3.5 C 0.5 0.5 0.5 0.5 3.5 0.5"  stroke="black" stroke-opacity="0.049999999999999996" stroke-width="5" transform="translate(1, 1)"></path><path fill="none" d="M 3.5 0.5 L 13.5 0.5 C 16.5 0.5 16.5 0.5 16.5 3.5 L 16.5 13.5 C 16.5 16.5 16.5 16.5 13.5 16.5 L 3.5 16.5 C 0.5 16.5 0.5 16.5 0.5 13.5 L 0.5 3.5 C 0.5 0.5 0.5 0.5 3.5 0.5"  stroke="black" stroke-opacity="0.09999999999999999" stroke-width="3" transform="translate(1, 1)"></path><path fill="none" d="M 3.5 0.5 L 13.5 0.5 C 16.5 0.5 16.5 0.5 16.5 3.5 L 16.5 13.5 C 16.5 16.5 16.5 16.5 13.5 16.5 L 3.5 16.5 C 0.5 16.5 0.5 16.5 0.5 13.5 L 0.5 3.5 C 0.5 0.5 0.5 0.5 3.5 0.5"  stroke="black" stroke-opacity="0.15" stroke-width="1" transform="translate(1, 1)"></path><path fill="rgb(249, 249, 249)" fill-opacity=" .85" d="M 3.5 0.5 L 13.5 0.5 C 16.5 0.5 16.5 0.5 16.5 3.5 L 16.5 13.5 C 16.5 16.5 16.5 16.5 13.5 16.5 L 3.5 16.5 C 0.5 16.5 0.5 16.5 0.5 13.5 L 0.5 3.5 C 0.5 0.5 0.5 0.5 3.5 0.5"></path><text x="8" style="font-size:12px;color:#000000;fill:#000000;" y="20"></text></g><text x="590" text-anchor="end" style="cursor:pointer;color:#909090;font-size:9px;fill:#909090;" y="395">meta-chart.com</text></svg>